<?xml version="1.0" encoding="UTF-8" standalone="no"?>
<!-- Created with Inkscape (http://www.inkscape.org/) -->

<svg
   width="8.480176mm"
   height="8.4801798mm"
   viewBox="0 0 8.480176 8.4801798"
   version="1.1"
   id="svg5"
   xml:space="preserve"
   xmlns:inkscape="http://www.inkscape.org/namespaces/inkscape"
   xmlns:sodipodi="http://sodipodi.sourceforge.net/DTD/sodipodi-0.dtd"
   xmlns="http://www.w3.org/2000/svg"
   xmlns:svg="http://www.w3.org/2000/svg"><sodipodi:namedview
     id="namedview7"
     pagecolor="#ffffff"
     bordercolor="#666666"
     borderopacity="1.0"
     inkscape:showpageshadow="2"
     inkscape:pageopacity="0.0"
     inkscape:pagecheckerboard="0"
     inkscape:deskcolor="#d1d1d1"
     inkscape:document-units="mm"
     showgrid="false" /><defs
     id="defs2" /><g
     inkscape:label="Layer 1"
     inkscape:groupmode="layer"
     id="layer1"
     transform="translate(-86.322623,-133.68554)"><g
       id="g868"
       transform="translate(-5.7277305,-11.625192)"><path
         style="fill:#ffffff;stroke-width:0.264583"
         d="m 92.381083,153.61561 -0.330729,-0.13345 v -4.08572 -4.08571 l 4.167187,0.0729 4.167189,0.0729 0.0729,4.16719 0.0729,4.16719 -3.909325,-0.0209 -3.909323,-0.0209 z m 7.871357,-3.79352 v -3.70417 h -3.70417 -3.704166 v 3.70417 3.70416 h 3.704166 3.70417 z m -3.895387,-4.03555 3.763097,-0.0812 -3.902609,-0.0583 -3.902604,-0.0583 0.05828,3.90261 0.05828,3.9026 0.08123,-3.76309 0.08124,-3.76309 z"
         id="path878" /><path
         style="fill:#fff6d5;stroke-width:0.264583"
         d="m 95.75452,151.67417 v -1.85208 h -1.190624 -1.190625 v -0.66146 -0.66146 h 1.190625 1.190624 v -1.19063 -1.19062 h 0.661459 0.661458 v 1.19062 1.19063 h 1.322917 1.322916 v 0.66146 0.66146 h -1.322916 -1.322917 v 1.85208 1.85208 H 96.415979 95.75452 Z"
         id="path876"
         sodipodi:nodetypes="ccccccccccccccccccccccccc" /><path
         style="fill:#d4aa00;stroke-width:0.264583"
         d="m 92.372973,149.35907 -0.05241,-3.4049 -0.0056,-0.36542 0.238969,0.004 3.663635,0.0547 3.902613,0.0583 -3.762902,0.0812 -3.762893,0.0812 -0.08168,3.6308 -0.08168,3.6308 z"
         id="path874"
         sodipodi:nodetypes="ccccccccccc" /><path
         style="fill:#ffcc00;stroke-width:0.264583"
         d="m 92.844104,149.82209 v -3.70417 h 1.455208 1.455208 v 1.19062 1.19063 h -1.190624 -1.190625 v 0.66146 0.66146 h 1.190625 1.190624 v 1.85208 1.85208 h -1.455208 -1.455208 z m 4.233333,1.85208 v -1.85208 h 1.322917 1.322916 v -0.66146 -0.66146 h -1.322916 -1.322917 v -1.19063 -1.19062 h 1.5875 1.587503 v 3.70417 3.70416 h -1.587503 -1.5875 z"
         id="path870" /></g></g></svg>
